<?xml version="1.0" encoding="utf-8"?>
<!-- Generator: Adobe Illustrator 27.3.1, SVG Export Plug-In . SVG Version: 6.00 Build 0)  -->
<svg version="1.1" id="Calque_1" xmlns="http://www.w3.org/2000/svg" xmlns:xlink="http://www.w3.org/1999/xlink" x="0px" y="0px"
	 viewBox="0 0 47.92 81.19" style="enable-background:new 0 0 47.92 81.19;" xml:space="preserve">
<style type="text/css">
	.st0{fill:#2C693F;}
</style>
<path class="st0" d="M44.61,35.9c-3-2.9-7.23-4.17-11.04-5.65c-4.26-1.65-8.55-3.32-12.55-5.54C14.64,21.17,9.77,16.24,6.76,9.85
	c1.02,1.07,2,2.19,3.21,3.04c1.39,0.98,3.42-0.99,2.18-2.32c-2.74-2.93-5.1-5.93-6.97-9.5C4.17-0.86,1.37,0.01,1.53,2.22
	c0.35,4.73-0.28,9.5-1.45,14.13c-0.71,2.79,3.21,3.7,3.82,0.83c0.33-1.51,0.47-3.04,0.67-4.56c1.82,4.17,4.87,7.84,8.36,10.72
	c7.03,5.8,15.79,8.56,24.04,12.11c3.73,1.61,8.55,4.72,6.83,9.59c-1.43,4.04-5.66,7.14-9.23,9.14c-7.88,4.41-16.96,5.53-24.99,9.53
	c-3.86,1.93-8,4.92-8.63,9.54c-0.47,3.45,1.07,7.05,4.58,7.91c0.89,0.22,1.8-1.06,0.85-1.6c-4.17-2.37-2.18-7.74,0.94-10.16
	c3.52-2.72,8.21-3.95,12.35-5.3c7.73-2.54,15.91-4.77,22.17-10.38c2.71-2.43,5.39-5.59,5.97-9.29
	C48.33,41.17,46.87,38.08,44.61,35.9z"/>
</svg>
