<?xml version="1.0" encoding="utf-8"?>
<!-- Generator: Adobe Illustrator 27.3.1, SVG Export Plug-In . SVG Version: 6.00 Build 0)  -->
<svg version="1.1" id="Calque_1" xmlns="http://www.w3.org/2000/svg" xmlns:xlink="http://www.w3.org/1999/xlink" x="0px" y="0px"
	 viewBox="0 0 489.18 606.69" style="enable-background:new 0 0 489.18 606.69;" xml:space="preserve">
<style type="text/css">
	.st0{fill-rule:evenodd;clip-rule:evenodd;fill:#006838;}
	.st1{fill:#006838;}
	.st2{font-family:'Vogue-Regular';}
	.st3{font-size:57.5776px;}
</style>
<g>
	<path class="st0" d="M242.28,511.1L242.28,511.1c11.22,0,22.21-1.01,32.89-2.95c-0.86-1.21-1.76-2.49-2.52-3.63
		c-9.88,1.69-20.03,2.57-30.37,2.57h0c-26.89,0-52.46-5.95-75.46-16.58c-0.8,1.09-1.58,2.24-2.22,3.4
		C188.25,504.93,214.58,511.1,242.28,511.1L242.28,511.1z M307.16,499.3c24.91-9.4,47.31-24.04,65.82-42.55
		c33.54-33.54,54.36-79.81,54.36-130.7v-51.8c0-50.89-20.82-97.16-54.36-130.7c-19.51-19.51-43.32-34.71-69.83-44.01
		c0.24,1.35,0.45,3.14,0.59,4.47c25.17,9.16,47.79,23.77,66.41,42.38c32.81,32.82,53.18,78.08,53.18,127.86v51.8
		c0,49.78-20.37,95.05-53.18,127.86c-18.32,18.32-40.52,32.75-65.21,41.94C305.65,497,306.41,498.18,307.16,499.3L307.16,499.3z
		 M297.99,97.81c-17.18-5.46-35.42-8.47-54.31-8.62c-0.32,1.19-0.76,2.68-1.17,4.01c19.1,0.02,37.54,3.05,54.87,8.63L297.99,97.81
		L297.99,97.81z M226.93,89.82c-13.44,1.12-26.49,3.69-38.99,7.56l2.4,3.46c11.9-3.59,24.31-5.98,37.09-7.03
		C227.19,92.57,227.03,91.13,226.93,89.82L226.93,89.82z M183.67,98.76c-27.42,9.23-52.02,24.73-72.08,44.78
		c-33.54,33.54-54.36,79.81-54.36,130.7v51.8c0,50.89,20.82,97.16,54.36,130.7c11.64,11.64,24.81,21.75,39.19,29.99l-0.16-4.73
		c-13.22-7.82-25.39-17.28-36.19-28.09c-32.81-32.82-53.18-78.08-53.18-127.86v-51.8c0-49.78,20.37-95.05,53.18-127.86
		c19.5-19.49,43.39-34.6,70-43.65C184.14,101.37,183.87,99.89,183.67,98.76z"/>
	<path class="st0" d="M426.2,346.61c-4.78,42.72-24.25,81.18-53.22,110.14c-33.54,33.54-79.8,54.36-130.7,54.36l0,0
		c-50.89,0-97.16-20.82-130.7-54.36c-28.96-28.96-48.44-67.41-53.22-110.14h4.04c4.76,41.62,23.77,79.07,52.01,107.3
		c32.81,32.82,78.08,53.19,127.86,53.19l0,0c49.79,0,95.05-20.37,127.87-53.19c28.23-28.23,47.25-65.68,52.01-107.3H426.2z"/>
	<g>
		<path class="st0" d="M15.97,243.26H-1.4v-0.63h0.78c0.1,0,0.23-0.01,0.38-0.03c0.15-0.02,0.31-0.04,0.48-0.08
			c0.18-0.04,0.34-0.09,0.51-0.16c0.16-0.07,0.3-0.15,0.41-0.25c0.11-0.1,0.2-0.21,0.29-0.33c0.08-0.12,0.15-0.28,0.21-0.5
			c0.05-0.21,0.09-0.48,0.12-0.79c0.03-0.32,0.04-0.73,0.04-1.23v-14.63c0-0.73-0.04-1.31-0.11-1.75c-0.08-0.44-0.19-0.73-0.32-0.87
			c-0.4-0.46-1.07-0.69-2.02-0.69H-1.4v-0.6h17.38l0.26,4.91h-0.66c-0.07-0.32-0.15-0.63-0.2-0.94c-0.06-0.31-0.15-0.6-0.25-0.88
			c-0.11-0.28-0.25-0.53-0.41-0.75c-0.16-0.23-0.4-0.43-0.7-0.59c-0.29-0.17-0.66-0.3-1.11-0.39c-0.45-0.1-1.01-0.14-1.67-0.14H4.99
			v8.88h4.97c0.77,0,1.37-0.06,1.81-0.18c0.43-0.12,0.77-0.32,1-0.58c0.24-0.27,0.4-0.61,0.49-1.02c0.1-0.41,0.18-0.9,0.26-1.46
			h0.63v7.83h-0.63c-0.08-0.59-0.16-1.1-0.27-1.52c-0.1-0.42-0.27-0.77-0.5-1.04c-0.23-0.27-0.56-0.47-1-0.59
			c-0.43-0.13-1.02-0.19-1.79-0.19H4.99v8.43c0,0.29,0.05,0.56,0.16,0.79c0.11,0.23,0.29,0.4,0.56,0.53
			c0.27,0.13,0.66,0.19,1.2,0.19h3.81c0.61,0,1.15-0.02,1.61-0.07c0.46-0.05,0.89-0.14,1.26-0.26c0.37-0.12,0.7-0.29,1-0.5
			c0.29-0.21,0.59-0.49,0.86-0.81c0.28-0.32,0.57-0.72,0.85-1.18c0.29-0.46,0.61-1,0.97-1.62h0.68L15.97,243.26L15.97,243.26z
			 M14.99,282.98c0,0.86-0.18,1.67-0.52,2.44c-0.35,0.76-0.84,1.43-1.47,2c-0.63,0.57-1.38,1.02-2.25,1.36
			c-0.87,0.34-1.82,0.5-2.86,0.5c-0.76,0-1.46-0.07-2.09-0.2c-0.63-0.13-1.2-0.28-1.69-0.45c-0.5-0.16-0.94-0.32-1.31-0.45
			c-0.38-0.13-0.69-0.2-0.96-0.2c-0.27,0-0.48,0.1-0.65,0.28c-0.17,0.19-0.29,0.52-0.37,1.01h-0.6v-7.74h0.6
			c0.15,1.16,0.43,2.15,0.84,2.97c0.42,0.82,0.92,1.48,1.53,2c0.61,0.52,1.28,0.89,2.03,1.12c0.75,0.23,1.52,0.34,2.31,0.34
			c0.69,0,1.31-0.1,1.88-0.3c0.55-0.2,1.03-0.46,1.42-0.81c0.39-0.34,0.68-0.73,0.89-1.18c0.21-0.44,0.32-0.91,0.32-1.41
			c0-0.56-0.1-1.04-0.29-1.46c-0.19-0.42-0.5-0.83-0.93-1.22c-0.44-0.39-1-0.8-1.68-1.23c-0.7-0.43-1.53-0.92-2.52-1.47
			c-1.34-0.75-2.43-1.43-3.29-2.03c-0.85-0.59-1.52-1.16-2.01-1.71c-0.49-0.55-0.82-1.1-0.99-1.66c-0.18-0.56-0.27-1.19-0.27-1.89
			c0-0.8,0.15-1.55,0.45-2.27c0.3-0.72,0.74-1.35,1.31-1.89c0.57-0.54,1.26-0.97,2.06-1.3c0.81-0.32,1.72-0.48,2.72-0.48
			c0.66,0,1.25,0.07,1.78,0.2c0.54,0.13,1.02,0.28,1.44,0.44c0.42,0.16,0.8,0.31,1.12,0.43c0.33,0.13,0.61,0.19,0.86,0.19
			c0.25,0,0.47-0.09,0.64-0.27c0.17-0.18,0.32-0.51,0.44-0.99h0.62v7.83h-0.62c-0.11-1.07-0.35-2.01-0.72-2.82
			c-0.36-0.81-0.82-1.49-1.38-2.04c-0.55-0.55-1.19-0.96-1.9-1.24c-0.7-0.28-1.46-0.41-2.25-0.41c-0.54,0-1.05,0.09-1.54,0.28
			c-0.48,0.19-0.9,0.44-1.25,0.75c-0.35,0.32-0.63,0.69-0.84,1.11c-0.21,0.42-0.32,0.87-0.32,1.33c0,0.44,0.09,0.85,0.25,1.22
			c0.16,0.38,0.46,0.75,0.88,1.15c0.42,0.39,0.99,0.82,1.71,1.27c0.73,0.45,1.64,0.98,2.75,1.58c1.07,0.57,1.96,1.08,2.66,1.52
			c0.7,0.44,1.25,0.8,1.66,1.11c0.76,0.57,1.35,1.26,1.78,2.07C14.78,281.18,14.99,282.05,14.99,282.98L14.99,282.98z M17.1,316.96
			c-0.04-0.41-0.1-0.76-0.17-1.06c-0.07-0.29-0.15-0.54-0.23-0.76c-0.09-0.21-0.19-0.4-0.29-0.55c-0.11-0.15-0.23-0.29-0.36-0.43
			c-0.36-0.38-0.77-0.65-1.25-0.84c-0.47-0.18-1.08-0.27-1.83-0.27H9.79v17.2c0,0.71,0.04,1.28,0.12,1.72
			c0.09,0.43,0.2,0.74,0.34,0.91c0.39,0.46,1.03,0.68,1.93,0.68h0.8v0.63H3.4v-0.63h0.81c0.49,0,0.89-0.07,1.21-0.2
			c0.33-0.14,0.59-0.36,0.82-0.66c0.11-0.18,0.19-0.46,0.25-0.86c0.07-0.39,0.09-0.92,0.09-1.59v-17.2h-2.7
			c-0.45,0-0.83,0.01-1.15,0.03c-0.32,0.02-0.59,0.06-0.82,0.11c-0.23,0.06-0.43,0.13-0.6,0.21c-0.17,0.09-0.34,0.21-0.49,0.35
			c-0.81,0.6-1.28,1.66-1.41,3.19h-0.75l0.25-5.3h18.71l0.18,5.3H17.1L17.1,316.96z M21.16,368.27c0,1.58-0.25,3.06-0.75,4.45
			c-0.5,1.38-1.26,2.59-2.29,3.62c-1.02,1.03-2.33,1.85-3.92,2.44c-1.58,0.6-3.46,0.89-5.64,0.89H-1.52v-0.63h0.85
			c0.48,0,0.88-0.07,1.22-0.22c0.34-0.15,0.59-0.37,0.78-0.69c0.11-0.19,0.2-0.48,0.26-0.9c0.07-0.41,0.11-0.94,0.11-1.58V361.1
			c0-1.38-0.14-2.27-0.43-2.66c-0.23-0.23-0.5-0.41-0.82-0.53c-0.32-0.12-0.69-0.19-1.11-0.19h-0.85v-0.59h9.15
			c1.25,0,2.38,0.05,3.38,0.15c1.01,0.1,1.92,0.26,2.72,0.48c0.81,0.21,1.54,0.49,2.19,0.83c0.65,0.34,1.24,0.74,1.77,1.21
			c0.52,0.46,0.99,1,1.42,1.61c0.43,0.61,0.79,1.27,1.1,1.99c0.3,0.72,0.54,1.49,0.7,2.31C21.07,366.52,21.16,367.38,21.16,368.27
			L21.16,368.27z M17.37,368.43c0-1.56-0.22-2.96-0.68-4.2c-0.45-1.24-1.07-2.29-1.88-3.15c-0.79-0.86-1.75-1.53-2.87-1.99
			c-1.11-0.46-2.34-0.7-3.66-0.7c-0.49,0-1.02,0.03-1.58,0.11c-0.56,0.07-1.16,0.2-1.82,0.39v19.14c0.7,0.15,1.34,0.26,1.93,0.35
			c0.59,0.08,1.12,0.13,1.6,0.13c1.27,0.01,2.46-0.22,3.55-0.68c1.1-0.46,2.04-1.12,2.84-1.99c0.81-0.87,1.43-1.92,1.9-3.18
			C17.15,371.42,17.37,370,17.37,368.43z"/>
		<path class="st0" d="M485.45,243.26h-16.42v-0.63c2.42-1.79,4.47-3.4,6.18-4.85c1.72-1.44,3.06-2.74,4.05-3.91
			c1.97-2.28,2.97-4.35,2.97-6.18c0-0.96-0.2-1.77-0.62-2.39c-0.41-0.64-0.9-1.14-1.49-1.52c-0.58-0.38-1.18-0.64-1.81-0.79
			c-0.63-0.15-1.16-0.23-1.6-0.23c-0.99,0-1.83,0.13-2.54,0.41c-0.71,0.28-1.31,0.62-1.79,1.02c-0.48,0.4-0.87,0.82-1.16,1.25
			c-0.29,0.44-0.5,0.81-0.64,1.12h-0.73c0.06-0.34,0.15-0.73,0.27-1.18c0.13-0.45,0.31-0.91,0.56-1.38
			c0.25-0.47,0.57-0.93,0.95-1.38c0.38-0.46,0.86-0.86,1.43-1.22c0.57-0.36,1.24-0.65,2.01-0.87c0.77-0.22,1.67-0.33,2.68-0.33
			c0.99,0,1.96,0.14,2.92,0.41c0.96,0.27,1.81,0.66,2.56,1.18c0.75,0.5,1.34,1.13,1.8,1.87c0.46,0.74,0.69,1.56,0.69,2.49
			c0,0.88-0.21,1.77-0.6,2.63c-0.4,0.87-0.9,1.71-1.49,2.51c-0.6,0.79-1.24,1.54-1.93,2.22c-0.69,0.68-1.33,1.28-1.91,1.79
			c-1.71,1.51-3.1,2.71-4.16,3.61c-1.05,0.9-1.79,1.51-2.22,1.83h7.31c1.05,0,1.9-0.02,2.53-0.08c0.63-0.05,1.14-0.14,1.54-0.28
			c0.41-0.13,0.74-0.31,1-0.54c0.27-0.23,0.57-0.53,0.88-0.9h0.76L485.45,243.26L485.45,243.26z M487.66,277.26
			c0,1-0.09,2-0.27,2.98c-0.18,0.98-0.44,1.91-0.79,2.79c-0.35,0.88-0.79,1.7-1.3,2.44c-0.51,0.74-1.1,1.38-1.79,1.93
			c-0.67,0.54-1.43,0.97-2.27,1.27c-0.83,0.31-1.75,0.46-2.75,0.46c-0.91,0-1.75-0.15-2.54-0.45c-0.8-0.3-1.52-0.71-2.18-1.24
			c-0.65-0.52-1.24-1.15-1.76-1.88c-0.52-0.73-0.96-1.53-1.31-2.38c-0.36-0.85-0.63-1.75-0.82-2.7c-0.18-0.95-0.27-1.91-0.27-2.89
			c0-1.79,0.25-3.42,0.75-4.89c0.5-1.46,1.17-2.72,2.01-3.75c0.84-1.04,1.81-1.85,2.92-2.41c1.1-0.57,2.25-0.85,3.43-0.85
			c1.18,0,2.31,0.27,3.38,0.81c1.08,0.54,2.02,1.31,2.84,2.3c0.82,1,1.48,2.21,1.97,3.64C487.41,273.87,487.66,275.48,487.66,277.26
			L487.66,277.26z M483.61,276.5c0-1.5-0.11-2.85-0.32-4.05c-0.21-1.2-0.52-2.22-0.94-3.07c-0.42-0.84-0.94-1.49-1.55-1.93
			c-0.62-0.45-1.33-0.67-2.13-0.67c-0.39,0-0.77,0.07-1.18,0.2c-0.4,0.14-0.78,0.36-1.15,0.69c-0.37,0.33-0.72,0.77-1.04,1.31
			c-0.33,0.55-0.61,1.24-0.85,2.08c-0.24,0.83-0.43,1.81-0.57,2.95c-0.15,1.13-0.22,2.46-0.22,3.96c0,1.67,0.12,3.14,0.35,4.41
			c0.23,1.27,0.56,2.32,0.99,3.17c0.43,0.85,0.95,1.48,1.55,1.9c0.61,0.42,1.28,0.63,2.02,0.63c0.74,0,1.41-0.19,2.03-0.58
			c0.61-0.39,1.15-1.03,1.6-1.93c0.45-0.89,0.8-2.09,1.04-3.57C483.49,280.52,483.61,278.69,483.61,276.5L483.61,276.5z
			 M485.45,334.2h-16.42v-0.63c2.42-1.79,4.47-3.4,6.18-4.85c1.72-1.44,3.06-2.74,4.05-3.91c1.97-2.28,2.97-4.35,2.97-6.19
			c0-0.96-0.2-1.76-0.62-2.39c-0.41-0.64-0.9-1.14-1.49-1.52c-0.58-0.38-1.18-0.64-1.81-0.79c-0.63-0.15-1.16-0.23-1.6-0.23
			c-0.99,0-1.83,0.14-2.54,0.41c-0.71,0.28-1.31,0.62-1.79,1.02c-0.48,0.4-0.87,0.82-1.16,1.25c-0.29,0.44-0.5,0.81-0.64,1.12h-0.73
			c0.06-0.34,0.15-0.73,0.27-1.18c0.13-0.45,0.31-0.91,0.56-1.38c0.25-0.47,0.57-0.93,0.95-1.38c0.38-0.45,0.86-0.86,1.43-1.22
			c0.57-0.36,1.24-0.65,2.01-0.87c0.77-0.22,1.67-0.33,2.68-0.33c0.99,0,1.96,0.14,2.92,0.41c0.96,0.27,1.81,0.66,2.56,1.17
			c0.75,0.51,1.34,1.13,1.8,1.87c0.46,0.74,0.69,1.57,0.69,2.49c0,0.88-0.21,1.76-0.6,2.63c-0.4,0.87-0.9,1.71-1.49,2.51
			c-0.6,0.79-1.24,1.54-1.93,2.22c-0.69,0.68-1.33,1.28-1.91,1.79c-1.71,1.51-3.1,2.71-4.16,3.61c-1.05,0.9-1.79,1.51-2.22,1.83
			h7.31c1.05,0,1.9-0.02,2.53-0.08c0.63-0.05,1.14-0.14,1.54-0.28c0.41-0.13,0.74-0.31,1-0.54c0.27-0.23,0.57-0.53,0.88-0.9h0.76
			L485.45,334.2L485.45,334.2z M487.66,368.2c0,1-0.09,2-0.27,2.98c-0.18,0.98-0.44,1.91-0.79,2.79c-0.35,0.88-0.79,1.69-1.3,2.44
			c-0.51,0.74-1.1,1.38-1.79,1.93c-0.67,0.54-1.43,0.97-2.27,1.27c-0.83,0.31-1.75,0.46-2.75,0.46c-0.91,0-1.75-0.15-2.54-0.45
			c-0.8-0.3-1.52-0.71-2.18-1.24c-0.65-0.52-1.24-1.15-1.76-1.88c-0.52-0.73-0.96-1.53-1.31-2.38c-0.36-0.85-0.63-1.76-0.82-2.7
			c-0.18-0.95-0.27-1.91-0.27-2.89c0-1.79,0.25-3.43,0.75-4.89c0.5-1.46,1.17-2.72,2.01-3.76c0.84-1.04,1.81-1.85,2.92-2.41
			c1.1-0.57,2.25-0.85,3.43-0.85c1.18,0,2.31,0.27,3.38,0.8c1.08,0.54,2.02,1.3,2.84,2.3c0.82,1,1.48,2.21,1.97,3.64
			C487.41,364.8,487.66,366.41,487.66,368.2L487.66,368.2z M483.61,367.44c0-1.5-0.11-2.85-0.32-4.05c-0.21-1.2-0.52-2.22-0.94-3.07
			c-0.42-0.84-0.94-1.48-1.55-1.93c-0.62-0.45-1.33-0.68-2.13-0.68c-0.39,0-0.77,0.07-1.18,0.2c-0.4,0.14-0.78,0.36-1.15,0.69
			c-0.37,0.33-0.72,0.77-1.04,1.31c-0.33,0.55-0.61,1.24-0.85,2.08c-0.24,0.83-0.43,1.82-0.57,2.95c-0.15,1.13-0.22,2.46-0.22,3.97
			c0,1.67,0.12,3.14,0.35,4.41c0.23,1.27,0.56,2.32,0.99,3.17c0.43,0.85,0.95,1.48,1.55,1.91c0.61,0.42,1.28,0.63,2.02,0.63
			c0.74,0,1.41-0.19,2.03-0.58c0.61-0.39,1.15-1.03,1.6-1.93c0.45-0.9,0.8-2.08,1.04-3.57
			C483.49,371.45,483.61,369.62,483.61,367.44z"/>
	</g>
	<g>
		<path class="st0" d="M209.6,266.88c12.71,6.15,22.6,15.27,29.32,27.76c2.45,4.54,4.7,9.17,6.85,14.39
			c0.35-1.07,0.64-1.76,0.81-2.49c3.38-14.65,5.8-29.46,7.47-44.4c0.84-7.46,1.64-14.93,1.99-22.44c0.13-2.78-0.65-4.8-2.67-6.66
			c-5.59-5.18-11.96-9.02-19.06-11.71c-7.57-2.87-15.48-4.52-23.35-6.25c-6.19-1.36-11.11-4.91-15.75-8.92
			c-4.01-3.46-7.24-7.61-9.83-12.24c-1.52-2.7-3.01-5.42-4.6-8.07c-3.29-5.5-5.06-11.49-5.72-17.81c-0.16-1.51-0.95-3.02-0.12-5.21
			c1.68,2.74,3.03,5.11,4.55,7.37c1.57,2.33,3.34,4.53,4.96,6.84c1.59,2.27,3.76,3.92,5.67,5.86c1.96,1.98,4.29,3.53,6.2,5.55
			c-7.77-4.26-13.53-10.65-18.59-18.03c-0.52,0.88-0.06,1.42,0.11,1.96c2.9,9.16,7.47,17.39,13.67,24.73
			c3.54,4.19,7.68,7.71,12.27,10.7c2.86,1.86,5.94,3.11,9.27,3.92c7.73,1.9,15.57,3.46,22.88,6.82c3.74,1.72,7.34,3.7,11.11,5.47
			c-3.38-4.29-7.51-7.73-11.95-10.87c5.03,1.67,8.46,5.69,12.76,8.52c-2.35-3.36-4.73-6.71-7.86-9.42
			c-7.04-6.09-14.95-10.64-23.86-13.42c-2.95-0.93-5.9-1.86-8.83-2.85c-1.47-0.5-2.87-1.2-3.94-2.42c4.28,2.27,9.09,2.67,13.61,3.93
			c6,1.68,11.28,4.64,16.38,7.93c6.12,3.95,11.29,8.98,15.65,14.86c1.99,2.68,4.17,5.22,6.56,8.2c0.08-3.08-0.34-5.64-0.69-8.19
			c-2.17-15.91-5.15-31.68-7.86-47.5c-1-5.83-2.01-11.66-2.79-17.52c-0.3-2.28-1.32-3.86-3.1-5.04c-4.4-2.93-9.03-5.42-14.22-6.6
			c-5.13-1.17-10.19-2.56-15.23-4.05c-9.61-2.86-16.6-8.87-21.19-17.73c-4.1-7.91-6.69-16.31-7.94-25.11
			c-0.5-3.56-0.34-7.17,0-10.83c3.54,5.95,5.98,12.48,10.83,17.58c4.86,5.11,11.29,7.91,17.19,11.99
			c-11.18-4.71-19.61-8.63-26.26-22.07c-0.42,0.82-0.29,1.55-0.21,2.21c1.23,10.53,4.65,20.26,10.82,28.95
			c2.64,3.72,5.99,6.72,9.77,9.25c1.56,1.04,3.21,1.99,5.03,2.48c5.79,1.57,11.5,3.48,17.43,4.51c3.47,0.6,6.58,2.14,9.65,3.78
			c0.94,0.5,1.8,1.28,3.56,1.26c-6.24-5.73-12.01-11.18-19.52-14.37c2,0.03,3.78,0.87,5.53,1.68c1.97,0.9,3.66,2.27,5.41,3.54
			c1.66,1.22,3.33,2.4,5.17,3.43c-4.06-6.31-9.53-11.37-14.75-16.68c7.15,5.33,14.22,10.71,19.7,17.94
			c-0.36-4.6-0.81-9.13-2.18-13.38c-1.26-3.9-3.37-7.52-5.14-11.25c-2.09-4.41-4.44-8.71-6.3-13.21
			c-4.28-10.34-4.73-20.96-1.63-31.71c1.99-6.88,4.93-13.39,8.16-19.75c4.71-9.29,9.53-18.52,13.75-28.05
			c1.81-4.11,4.06-8.03,5.69-12.24c1.16-2.98,2.26-5.96,3.09-9.05c0.2-0.72,0.45-1.43,0.72-2.13c0.14-0.37,0.47-0.59,0.87-0.6
			c0.42-0.01,0.68,0.26,0.79,0.66c0.14,0.54,0.32,1.08,0.39,1.64c0.11,0.84,0.18,1.68,0.2,2.53c0.27,9.76,0.21,19.52-0.01,29.28
			c-0.14,6.5-1.56,12.83-3.56,19.02c-2.42,7.51-5.75,14.66-8.77,21.93c-0.25,0.6-0.59,1.15-1.27,1.58c0.98-2.57,1.91-5.16,2.94-7.71
			c1.16-2.87,2.45-5.69,3.61-8.56c3.88-9.62,5.47-19.65,5.39-29.99c-0.05-6.85-0.02-13.7-0.02-20.54c0-0.56,0-1.11,0-1.9
			c-0.86,0.5-0.79,1.2-0.95,1.72c-2.2,7.53-6.09,14.32-9.55,21.29c-5.19,10.41-10.91,20.56-15.43,31.3
			c-5.78,13.72-5.94,27.53-0.45,41.38c1.35,3.4,2.89,6.72,4.34,10.08c0.18,0.43,0.36,0.86,1.05,1.1
			c-1.46-8.43-1.94-16.79-0.07-25.15c0.32,5.09-0.08,10.23,1.12,15.32c1.5-7.01,3.17-13.96,6.09-20.95c0.38,1.11,0.1,1.78-0.05,2.46
			c-2.06,9.35-3.94,18.73-4.33,28.34c-0.05,1.32-0.02,2.62,0.34,3.91c4.85,17,7.8,34.4,11.01,51.74c1.32,7.1,2.68,14.19,4.1,21.68
			c0.67-1.19,0.74-2.15,0.95-3.08c2.14-9.43,4.4-18.83,8.51-27.66c1.31-2.81,2.72-5.56,4.46-8.14c4.72-7.01,9.42-14.03,14.15-21.03
			c0.54-0.8,0.93-1.78,2.52-2.6c-2.22,4.67-3.97,8.85-6.58,12.64c-6.63,9.64-12,19.93-15.34,31.2c-0.75,2.51-1.45,5.03-1.67,7.73
			c4.72-10.03,11.39-18.7,18.49-27.09c-7.38,10.26-14.42,20.69-18.52,32.86c1.09-1.51,2.12-3.07,3.29-4.51
			c3.15-3.85,6.32-7.69,9.8-11.26c5.92-6.06,11.26-12.62,15.9-19.7c5.63-8.6,9.09-18.07,10.65-28.23c0.7-4.55,1.31-9.12,1.07-13.73
			c-0.27-5.34-0.86-10.66-2.34-15.83c-0.3-1.05-0.47-2.2-1.49-3.43c-0.69,6.08-1.27,11.89-3.74,17.28
			c1.05-6.91,1.7-13.87,2.23-20.86c1.42,0.11,1.57,1.09,1.88,1.77c2.31,5.16,3.95,10.5,4.67,16.15c1.89,14.88-0.88,29.03-7.04,42.48
			c-4.08,8.91-9.88,16.83-16.53,24.05c-3.95,4.29-7.64,8.79-11.21,13.39c-5.07,6.51-8.58,13.85-10.99,21.74
			c-0.35,1.13-0.29,2.19-0.09,3.31c2.25,12.43,3.32,24.96,2.36,37.58c-0.89,11.79-2.24,23.55-4.11,35.24
			c-0.93,5.84-2.02,11.65-3.03,17.48c-0.08,0.45-0.09,0.91-0.14,1.42c0.99,0,1.07-0.76,1.36-1.26
			c6.76-11.41,12.83-23.14,17.04-35.77c1.42-4.27,3.21-8.42,4.79-12.63c2.8-7.45,6.69-14.25,11.71-20.43
			c5.71-7.01,10.68-14.5,15.06-22.41c3.75-6.77,6.5-13.93,8.65-21.34c0.54-1.87,1.14-3.72,2.03-5.58c2.31,3.96,2.48,8.35,2.99,12.67
			c-0.72-3.21-2.17-6.19-2.79-9.45c-0.71,0.28-0.58,0.8-0.67,1.19c-2.37,11.1-6.84,21.41-11.99,31.45
			c-2.15,4.19-4.8,8.08-7.72,11.76c-4.47,5.63-8.03,11.77-10.87,18.35c-3.2,7.41-6.51,14.77-9.75,22.16
			c-0.22,0.5-0.62,0.95-0.41,1.97c2.27-3.04,4.33-5.92,6.52-8.69c2.21-2.79,4.55-5.46,7.11-8.52c0.2,1.54-0.61,2.23-1.13,2.96
			c-3.76,5.28-7.67,10.44-11.17,15.9c-1.11,1.74-2.21,3.49-3.29,5.25c-0.27,0.45-0.74,0.88-0.36,1.64c0.92-0.29,1.44-1.09,2.04-1.72
			c7.09-7.42,14.62-14.39,23.06-20.21c7.96-5.49,12.82-13.02,16.12-21.81c2.82-7.53,4.38-15.3,4.2-23.38
			c-0.06-2.81,0.63-5.52,1.41-8.45c0.62,1.26,0.36,2.31,0.18,3.25c-0.6,2.97-0.58,5.98-0.83,8.97c-0.86,10.06-2.74,19.86-6.94,29.12
			c-2.37,5.21-5.61,9.72-10.06,13.38c-5.65,4.65-11.46,9.12-16.55,14.43c-9.63,10.05-18.34,20.87-27.08,31.68
			c-4.09,5.07-6.42,10.57-7.82,16.81c-2.51,11.19-4.89,22.37-5.76,33.83c-0.51,6.75-0.38,13.51-0.14,20.27
			c0.02,0.44-0.09,0.96,0.42,1.25c0.59-0.07,0.66-0.61,0.86-0.98c6.99-13.16,16.41-24.45,26.99-34.82
			c5.3-5.19,10.83-10.15,16.67-14.73c1.25-0.98,1.91-2.17,2.36-3.68c1.55-5.24,2.38-10.61,2.97-16.03c0.36-3.3,0.04-6.55-0.56-9.8
			c-0.27-1.44-0.46-2.9-0.46-4.41c1.34,1.1,1.6,2.64,1.82,4.14c1.15,7.84,1.58,15.69,0.05,23.53c-0.03,0.17,0.06,0.36,0.1,0.56
			c0.9,0.15,1.32-0.59,1.84-1.05c7.39-6.39,14.75-12.8,22.11-19.22c2.42-2.1,4.49-4.54,6.66-6.87c0.93-1,1.39-2.21,1.89-3.42
			c2.5-6.12,4-12.49,4.96-19.01c1.54-10.4,2.87-20.82,3.1-31.35c0.12-5.38-0.58-10.68-0.97-16.01c-0.66-8.78,1.29-16.95,5.42-24.66
			c0.23-0.43,0.45-0.9,0.98-0.84c0.54,0.07,0.66,0.58,0.72,1.07c0.13,1.02,0.37,2.04,0.38,3.07c0.06,6.1,1.68,11.86,3.79,17.51
			c0.75,2,1.42,4.03,1.86,6.13c-3.99-7.27-6.94-14.87-7.13-23.28c-0.86-0.15-0.84,0.48-0.94,0.8c-2.22,6.64-3.46,13.32-2.73,20.45
			c1,9.8,1.61,19.68,0.72,29.53c-0.79,8.78-2.11,17.51-4.16,26.11c-0.13,0.54-0.41,1.06-0.04,1.79c1.9-2.69,2.65-5.81,4.01-8.66
			c0.22,2.77-1.71,5.01-1.95,7.69c0.53-0.03,0.72-0.35,0.91-0.64c4.18-6.81,8.14-13.72,11.03-21.2c2.78-7.22,4.21-14.59,2.77-22.32
			c-0.03-0.17,0.07-0.36,0.11-0.59c0.79-0.07,0.79,0.58,0.92,1.04c1.21,4.43,1.09,8.89,0.31,13.39c-1.45,8.32-4.48,16.06-8.58,23.41
			c-2.47,4.41-4.83,8.89-7.75,13.07c0.76,0.59,1.25-0.09,1.8-0.27c9.86-3.25,19.79-5.98,30.34-4.01c1.29,0.24,2.58,0.49,3.84,0.84
			c1.07,0.3,2.2,0.48,3.17,1.27c-14.58-3.21-28.11-0.58-40.72,7.15c4.36-0.83,8.63-2.19,13.14-2.05c4.46,0.13,8.95,0.12,13.3,1.58
			c-2.15,0-4.3,0.01-6.44,0c-2.25-0.02-4.5-0.24-6.76-0.03c-2.23,0.21-4.45,0.42-6.62,1.31c2.54,0.26,5.09,0.44,7.61,0.8
			c5.22,0.73,10.28,2.16,15.22,4c3.87,1.44,7.82,2.63,11.76,3.86c10.48,3.27,20.39,1.92,29.75-3.74c1.16-0.7,2.33-1.41,3.47-2.38
			c-6.73,0.9-12.22-2.31-18.29-4.87c0.98-0.5,1.49-0.08,2.01,0.09c1.95,0.65,3.91,1.3,5.86,1.99c4.59,1.64,9.2,1.51,13.84,0.22
			c0.7-0.19,1.37-0.65,2.16-0.32c0.48,0.91-0.25,1.39-0.7,1.92c-5.26,6.25-12.06,9.68-20.07,10.86c-7.93,1.16-15.66,0.54-23.33-1.97
			c-5.7-1.86-11.31-4.02-17.14-5.51c-8.37-2.14-16.73-1.85-25.11-0.07c-1.06,0.22-1.86,0.66-2.59,1.5
			c-4.35,4.95-9.03,9.55-14.13,13.72c-6.77,5.54-12.84,11.85-19.46,17.55c-0.12,0.1-0.14,0.31-0.29,0.66
			c1.1,0.37,2.2,0.16,3.25,0.04c6.54-0.69,13.03-1.61,19.31-3.69c4.27-1.42,8.63-2.56,13.1-3.26c7.75-1.2,15.13,0.12,22.25,3.23
			c0.49,0.22,1.43,0.29,1.02,1.3l0.04-0.05c-4.04-2.02-8.44-2.6-12.83-2.76c-7.66-0.28-15.18,0.55-22.29,3.77
			c-3.35,1.51-6.97,2.2-10.47,3.26c-0.61,0.19-1.22,0.38-1.81,1.1c1.96,0,3.93-0.01,5.89,0c2.07,0.01,4.12-0.24,6.17-0.5
			c2.05-0.27,4.11-0.43,6.16-0.64c2.04-0.21,4.08-0.42,6.16-0.38c-7.56,2.36-15.31,3.56-23.64,3.85c2.5,1.06,4.78,0.96,6.96,1.28
			c5.69,0.82,11.4,0.95,17.14,0.59c5.15-0.32,10.29-0.8,15.47-0.52c8.68,0.48,16.8,2.79,24.43,6.91c1.07,0.58,2.13,1.13,3.36,1.54
			c-2.26-4.55-6.28-7.62-9.72-11.31c0.79-0.57,1.29-0.04,1.75,0.28c3.1,2.16,5.95,4.62,8.22,7.64c1.91,2.55,3.64,5.24,5.43,7.88
			c0.25,0.37,0.57,0.77,0.17,1.27c-0.9,0.26-1.27-0.61-1.9-0.91c-8.05-3.8-15.97-7.91-24.92-9.36c-4.11-0.66-8.23-0.55-12.36-0.44
			c-5.73,0.15-11.43,0.79-17.17,0.7c-9.74-0.15-19.21-1.87-28.53-4.61c-0.9-0.26-1.89-0.47-2.61-1.01
			c-2.33-1.74-3.86-0.73-5.75,0.96c-12.34,11.05-23.1,23.34-31.07,37.96c-3.19,5.85-5.16,12.05-6.14,18.61
			c-0.18,1.23,0,2.42,0.21,3.64c1.84,10.67,5.06,20.97,8.16,31.31c2.56,8.54,5.51,16.96,7.81,25.58c0.09,0.34,0.09,0.74,0.55,0.95
			c0.85-0.32,0.75-1.22,0.93-1.86c2.77-9.97,7.41-19.02,13.19-27.56c4.8-7.08,10.68-12.78,18.78-15.97
			c4.49-1.77,7.27-2.32,14.08-2.4c-0.89,0.78-1.93,0.83-2.92,0.85c-7.02,0.15-12.82,3.21-18.1,7.52
			c-4.57,3.73-8.18,8.25-11.01,13.41c-1.95,3.54-3.67,7.18-5.3,10.88c-0.25,0.57-0.77,1.12-0.21,2.12c3-4.69,5.81-9.37,10.16-12.82
			c-2.94,4.08-6.04,8.03-8,12.74c1.08,0.07,1.18-0.95,1.62-1.49c5.23-6.37,11.03-12.06,18.56-15.69c5.21-2.52,10.74-3.86,16.51-4.33
			c7.58-0.61,15.2-0.47,22.75-1.58c4.22-0.62,8.21-1.92,12.08-3.62c0.91-0.4,1.84-0.84,2.81-2.07c-8.11,0.62-15.62-0.24-22.71-3.74
			c9.45,1.76,18.88,2.99,28.38-0.25c-1.53,2.64-3.24,5.03-5.54,6.92c-4.8,3.95-10.53,5.58-16.51,6.69
			c-5.58,1.04-11.22,1.11-16.84,1.11c-11.94,0-21.97,4.42-30.29,12.77c-7.11,7.14-13.06,15.21-18.67,23.58
			c-1.72,2.56-1.75,4.74-1.08,7.53c3.08,12.9,4.4,25.92,4.04,39.06h-6.49c0-2.85-0.02-5.7-0.06-8.55
			c-0.16-12.39-2.5-24.44-5.44-36.41c-0.76-3.1-1.64-6.17-2.33-9.28c-0.37-1.63-1.16-2.55-2.74-3.19
			c-5.23-2.09-10.39-4.35-15.57-6.53c-10.42-4.39-20.42-9.52-29.23-16.71c-1-0.82-2.14-1.08-3.37-1.24
			c-6.15-0.79-12.17,0.04-18.13,1.44c-6.49,1.52-12.88,3.35-19.15,5.63c-7.84,2.85-15.92,4.41-24.31,3.75
			c-9.73-0.76-18.76-3.58-26.84-9.18c-0.31-0.21-0.64-0.41-0.89-0.69c-0.66-0.71-0.43-1.48,0.5-1.6c0.83-0.1,1.69-0.07,2.53-0.02
			c7.19,0.38,14.21-0.49,21.13-2.55c6.39-1.9,12.64-4.17,18.88-6.49c1.81-0.67,3.62-1.46,5.79-1.36c-0.7,0.71-1.45,0.82-2.15,1.05
			c-2.95,0.97-5.86,2.02-8.63,3.39c-10.63,5.22-21.79,7.99-33.91,7.54c0.97,1.22,2.27,1.59,3.4,2.14c10.6,5.25,21.73,6.4,33.15,3.68
			c4.25-1.02,8.26-3.05,12.39-4.57c7.6-2.79,15.38-4.88,23.44-5.77c1.9-0.21,3.82-0.22,5.73-0.53c-9.39-3.43-18.79-1.45-28.19-0.13
			c3.33-2.31,11.38-3.1,27.08-2.62c-7.11-3.73-14.68-4.21-22.17-5.06c7.24-1.05,14.3-0.08,21.4,1.81c-0.14-0.45-0.16-0.66-0.27-0.8
			c-10.72-13-18.06-27.79-23.2-43.74c-1.13-3.51-2.7-6.79-4.95-9.73c-0.98-1.28-2.09-2.42-3.39-3.36c-4.69-3.36-9.71-5.99-15.48-7.1
			c-4.87-0.93-9.68-2.24-14.54-3.3c-9.74-2.12-22-13.25-22.97-27.42c-0.02-0.28-0.07-0.56-0.08-0.84c-0.01-0.59,0.07-1.18,0.7-1.38
			c0.5-0.16,0.87,0.24,1.19,0.58c1.81,1.94,4.08,3.29,6.22,4.82c6.21,4.44,13.26,6.93,20.51,8.96c0.78,0.21,1.68,0.13,2.28,0.89
			c-6.74-0.58-18.29-3.21-27.34-10.53c-0.16,0.96,0.27,1.65,0.54,2.36c4.04,10.48,11.34,17.25,22.44,19.69
			c5.4,1.19,10.78,2.52,16.2,3.66c3.45,0.73,6.44,2.42,9.54,4.06c-1.57-2.98-4.3-4.8-6.66-7.01c3.04,1.27,5.47,3.36,7.77,5.73
			c-0.29-2.55-3.46-7.76-6.46-10.4c-3.16-2.78-6.47-5.37-11.3-6.47c4.06-0.62,5.87,0.2,15.03,6.38c-0.7-3.35-1.38-6.63-2.09-9.91
			c-2.92-13.67-2.64-27.22,1.56-40.62c0.91-2.87,1.56-5.79,1.82-8.8c0.29-3.4,0.2-6.74-1.04-9.99c-0.33-0.86-0.46-1.81-0.61-2.73
			c-0.06-0.35,0-0.76,0.42-0.94c0.4-0.18,0.73,0.02,1.01,0.28c0.41,0.38,0.84,0.76,1.2,1.18c5.04,5.96,8.62,12.7,10.72,20.23
			c0.13,0.47,0.24,0.9-0.17,1.59c-2.31-6.28-4.35-12.55-9.79-17.62c1.57,5.1,1.45,9.74,0.49,14.34c-0.7,3.4-1.76,6.72-2.56,10.1
			c-2.05,8.73-1.7,17.53-0.38,26.31c0.53,3.52,1.34,7,2,10.51c0.13,0.66,0.3,1.28,0.88,1.87c-0.34-7.24-0.61-14.37,0.84-21.44
			c0.5,6.66,0.17,13.36,1.16,20.61c1.74-6.32,3.3-11.99,4.86-17.67c1.55-5.66,3.47-11.23,3.83-17.45c1.08,1,0.69,1.83,0.67,2.55
			c-0.17,6.6-1.44,13.03-3.03,19.41c-1.7,6.83-3.31,13.68-3.82,20.74c-0.29,4.05-0.24,8.08,0.62,12.04
			c3.48,16.07,10.27,30.73,18.98,44.57c0.2,0.32,0.42,0.63,0.67,0.9c0.11,0.12,0.33,0.13,0.65,0.24c-0.56-5.18-0.55-10.3-0.48-15.44
			c0.12-9.47,1.72-18.66,4.85-27.6c2.76-7.88,5.48-15.77,8.97-23.37c2.52-5.47,4.38-11.18,5.06-17.21c0.15-1.3,0.16-2.62,0.27-3.93
			c0.07-0.79-0.25-1.71,0.91-2.49c2.76,4.62,4.03,9.55,4.13,14.84c-1.47-3.52-1.64-7.47-3.63-11.43c-0.25,1.69-0.52,2.88-0.59,4.08
			c-0.5,7.99-3.19,15.39-6.21,22.69c-3.52,8.5-7.18,16.95-8.86,26.06c-0.79,4.34-1.35,8.71-1.13,13.21
			c3.11-10,8.55-18.99,12.26-28.74c-1.69,8.65-5.71,16.57-7.84,25.11c3.83-7.53,9.56-13.87,13.17-21.52
			c1.9-4.04,3.06-8.25,3.56-12.66c0.11-0.92,0.03-1.88,0.98-2.79c-0.11,7.95-1.17,15.42-5.55,22.1c-1.96,2.98-3.87,5.99-5.82,8.98
			c-5.64,8.65-8.04,18.31-8.85,28.46c-0.19,2.43-0.13,4.88-0.18,7.32c-0.02,1.17,0.35,2.13,1.19,3.02
			c5.48,5.83,11.26,11.32,17.8,15.96c6,4.26,12.62,7.41,19.3,10.41c5.47,2.46,11.05,4.71,16.58,7.04c0.59,0.25,1.2,0.44,1.93,0.7
			c0.29-1.12-0.24-1.96-0.5-2.8c-3.57-11.37-7.15-22.74-9.84-34.37c-0.33-1.41-1.05-2.59-1.76-3.81
			c-5.47-9.38-12.32-17.71-19.67-25.65c-1.02-1.1-2-2.23-3.2-3.57c1.57-0.15,2.25,0.88,3.07,1.48c6.64,4.91,11.83,11.23,16.83,17.7
			c0.66,0.86,1.34,1.7,2.23,2.82c0.4-1.18,0.2-1.99,0.09-2.78c-1.76-13.27-2.17-26.58-0.97-39.91c1.05-11.62,3.41-23.02,6.44-34.27
			c0.61-2.29,0.15-3.69-1.43-5.44c-8.69-9.67-19.69-16.16-30.7-22.63c-3.64-2.14-7.37-4.14-10.92-6.42
			c-10.76-6.91-16.65-16.77-17.58-29.55c-0.44-6.1-0.37-12.19,0.56-18.26c0.11-0.73,0.33-1.46,0.58-2.16c0.18-0.52,0.49-1,0.73-1.48
			c1.17,0.22,1.17,1.22,1.48,1.93c1.15,2.67,1.82,5.52,3.04,8.17c1.65,3.59,3.53,7.04,5.72,10.33c0.33,0.5,1,0.91,0.69,1.89
			c-4.83-4.9-7.39-10.97-10.15-17.7c-0.33,1.6-0.65,2.6-0.72,3.61c-0.52,7.24-0.42,14.43,1.75,21.47
			c2.86,9.25,8.96,15.68,17.27,20.23c5.6,3.07,11.24,6.05,16.88,9.03c5.33,2.81,10.45,5.92,15.09,9.79c0.42,0.35,0.89,0.63,1.53,0.8
			c-1.63-3.34-4.17-6.03-6.33-8.98c-2.22-3.03-5.07-5.45-7.73-8.07c5.89,2.84,9.85,7.87,14.05,13.01c0.1-0.62,0.21-0.84,0.15-0.96
			c-3.8-7.84-8.42-15-15.33-20.6c-4.15-3.37-8.5-6.44-12.84-9.54C209.44,267.05,209.52,266.97,209.6,266.88z"/>
		<path class="st0" d="M378.04,286.67c1.38,0.42,2.23,0.68,3.41,1.03C379.82,287.67,379.82,287.67,378.04,286.67z"/>
		<path class="st0" d="M348.9,329.34c1.29-0.94,2.19,0.39,3.28,0.56c-1.22,0.53-2.11-0.57-3.23-0.62
			C348.94,329.29,348.9,329.34,348.9,329.34z"/>
		<path class="st0" d="M209.36,267.14c-1.03-0.19-1.79-0.82-3.1-1.88c1.72,0.27,2.57,0.85,3.34,1.62
			C209.52,266.97,209.44,267.05,209.36,267.14z"/>
		<path class="st0" d="M151.38,344.02c0.89-0.48,1.34,0.28,2.27,0.35C152.51,345.12,152.09,343.99,151.38,344.02z"/>
		<path class="st0" d="M203.61,263.12c0.67,0.02,1.09,0.33,1.33,0.91C204.06,264.35,204,263.42,203.61,263.12z"/>
	</g>
</g>
<text transform="matrix(1.2158 0 0 1 74.2274 595.174)" class="st1 st2 st3">PLANTEA</text>
</svg>
